<svg width="316.161133" height="59.161133" viewBox="0 0 316.161 59.1611" fill="none" xmlns="http://www.w3.org/2000/svg" xmlns:xlink="http://www.w3.org/1999/xlink">
	<desc>
			Created with Pixso.
	</desc>
	<defs/>
	<path id="Plush Creation die Werkstatt" d="M0.57 54.42Q0 55.16 0 56.37L0 56.44Q0 57.65 0.57 58.4Q0.89 58.81 1.3 59Q1.65 59.16 2.07 59.16Q2.71 59.16 3.16 58.87Q3.4 58.72 3.58 58.49L3.62 59.06L4.45 59.06L4.45 51.56L3.55 51.56L3.55 54.31Q3.36 54.09 3.12 53.94Q2.68 53.68 2.08 53.68Q1.62 53.68 1.25 53.86Q0.86 54.04 0.57 54.42ZM34.37 57.2L34.93 56.61L36.77 59.06L37.83 59.06L35.54 55.98L37.59 53.78L36.49 53.78L34.85 55.51L34.37 56.09L34.37 51.56L33.46 51.56L33.46 59.06L34.37 59.06L34.37 57.2ZM5.92 52.11Q5.86 52.23 5.86 52.37Q5.86 52.53 5.92 52.64Q5.95 52.69 5.99 52.74Q6.01 52.76 6.02 52.77Q6.16 52.89 6.39 52.89Q6.63 52.89 6.76 52.77Q6.78 52.76 6.79 52.74Q6.84 52.69 6.87 52.64Q6.93 52.52 6.93 52.37Q6.93 52.23 6.87 52.12Q6.84 52.06 6.79 52Q6.77 51.98 6.75 51.96Q6.62 51.85 6.39 51.85Q6.16 51.85 6.03 51.96Q6.01 51.98 5.99 52Q5.95 52.05 5.92 52.11ZM17.87 57.75L17.73 56.82L16.61 51.95L15.67 51.95L17.39 59.06L18.24 59.06L19.76 53.88L19.87 53.34L19.99 53.88L21.45 59.06L22.3 59.06L24.03 51.95L23.09 51.95L21.98 56.81L21.83 57.77L21.64 56.91L20.26 51.95L19.47 51.95L18.07 56.91L17.87 57.75ZM44.91 53.78L44.91 52.5L44 52.5L44 53.78L43.04 53.78L43.04 54.47L44 54.47L44 57.75Q44 58.42 44.31 58.79Q44.37 58.86 44.44 58.92Q44.73 59.16 45.22 59.16Q45.56 59.16 45.92 59.06L45.92 58.33Q45.64 58.38 45.49 58.38Q45.17 58.38 45.04 58.23Q45.04 58.23 45.04 58.23Q44.91 58.07 44.91 57.75L44.91 54.47L45.89 54.47L45.89 53.78L44.91 53.78ZM53.61 53.78L53.61 52.5L52.71 52.5L52.71 53.78L51.75 53.78L51.75 54.47L52.71 54.47L52.71 57.75Q52.71 58.42 53.02 58.79Q53.08 58.86 53.15 58.92Q53.44 59.16 53.93 59.16Q54.27 59.16 54.62 59.06L54.62 58.33Q54.35 58.38 54.19 58.38Q53.88 58.38 53.75 58.23Q53.75 58.23 53.75 58.23Q53.61 58.07 53.61 57.75L53.61 54.47L54.6 54.47L54.6 53.78L53.61 53.78ZM56.88 53.78L56.88 52.5L55.98 52.5L55.98 53.78L55.01 53.78L55.01 54.47L55.98 54.47L55.98 57.75Q55.98 58.42 56.28 58.79Q56.34 58.86 56.41 58.92Q56.71 59.16 57.2 59.16Q57.53 59.16 57.89 59.06L57.89 58.33Q57.62 58.38 57.46 58.38Q57.15 58.38 57.01 58.23Q57.01 58.23 57.01 58.23Q56.88 58.07 56.88 57.75L56.88 54.47L57.87 54.47L57.87 53.78L56.88 53.78ZM9.24 58.85Q9.77 59.16 10.47 59.16Q11.26 59.16 11.82 58.79Q12.2 58.55 12.47 58.14L11.91 57.71Q11.69 57.99 11.41 58.17Q11.37 58.2 11.33 58.22Q11 58.42 10.52 58.42Q10.15 58.42 9.85 58.27Q9.61 58.15 9.41 57.94Q9.35 57.87 9.29 57.79Q8.97 57.34 8.95 56.68L12.53 56.68L12.53 56.3Q12.53 55.04 11.96 54.36Q11.79 54.16 11.58 54.01Q11.09 53.68 10.36 53.68Q10.09 53.68 9.83 53.74Q9.5 53.83 9.19 54.03Q9.04 54.12 8.91 54.24Q8.57 54.54 8.35 54.99Q8.05 55.61 8.05 56.4L8.05 56.56Q8.05 57.54 8.51 58.19Q8.61 58.33 8.73 58.45Q8.96 58.7 9.24 58.85ZM25.73 58.85Q26.27 59.16 26.97 59.16Q27.76 59.16 28.31 58.79Q28.69 58.55 28.96 58.14L28.41 57.71Q28.19 57.99 27.91 58.17Q27.87 58.2 27.83 58.22Q27.5 58.42 27.02 58.42Q26.64 58.42 26.34 58.27Q26.1 58.15 25.91 57.94Q25.84 57.87 25.79 57.79Q25.47 57.34 25.45 56.68L29.03 56.68L29.03 56.3Q29.03 55.04 28.46 54.36Q28.29 54.16 28.08 54.01Q27.58 53.68 26.86 53.68Q26.58 53.68 26.32 53.74Q25.99 53.83 25.69 54.03Q25.54 54.12 25.41 54.24Q25.06 54.54 24.85 54.99Q24.55 55.61 24.55 56.4L24.55 56.56Q24.55 57.54 25.01 58.19Q25.1 58.33 25.22 58.45Q25.45 58.7 25.73 58.85ZM32.18 54.55Q32.42 54.55 32.63 54.59L32.63 53.75Q32.49 53.68 32.23 53.68Q31.84 53.68 31.54 53.84Q31.2 54.01 30.97 54.39L30.95 53.78L30.07 53.78L30.07 59.06L30.98 59.06L30.98 55.31Q31.11 54.98 31.36 54.79Q31.68 54.55 32.18 54.55ZM41.51 57.29Q41.6 57.44 41.6 57.66Q41.6 57.8 41.55 57.92Q41.47 58.09 41.29 58.21Q40.98 58.42 40.47 58.42Q39.91 58.42 39.57 58.15Q39.43 58.04 39.34 57.89Q39.22 57.69 39.21 57.43L38.31 57.43Q38.31 57.61 38.35 57.78Q38.41 58.06 38.58 58.3Q38.63 58.37 38.68 58.44Q38.94 58.75 39.35 58.93Q39.83 59.16 40.47 59.16Q41.37 59.16 41.94 58.73Q42.22 58.51 42.36 58.23Q42.5 57.95 42.5 57.59Q42.5 57.19 42.32 56.9Q42.31 56.89 42.3 56.87Q42.1 56.58 41.68 56.37Q41.26 56.16 40.58 56.01Q39.91 55.86 39.65 55.69Q39.54 55.62 39.47 55.52Q39.39 55.38 39.39 55.2Q39.39 55.03 39.45 54.89Q39.52 54.75 39.67 54.63Q39.95 54.42 40.44 54.42Q40.82 54.42 41.09 54.59Q41.17 54.63 41.23 54.69Q41.44 54.86 41.51 55.08Q41.55 55.2 41.55 55.33L42.46 55.33Q42.46 54.97 42.32 54.68Q42.18 54.38 41.9 54.14Q41.85 54.11 41.81 54.07Q41.27 53.68 40.44 53.68Q39.68 53.68 39.17 54.03Q39.1 54.07 39.04 54.13Q38.7 54.41 38.57 54.76Q38.49 54.98 38.49 55.23Q38.49 55.56 38.63 55.82Q38.65 55.86 38.68 55.9Q38.87 56.18 39.27 56.39Q39.68 56.59 40.36 56.74Q41.05 56.89 41.33 57.09Q41.44 57.17 41.51 57.29ZM50.08 58.5Q50.13 58.9 50.21 59.06L51.16 59.06L51.16 58.98Q50.97 58.55 50.97 57.82L50.97 55.39Q50.96 54.81 50.68 54.41Q50.58 54.26 50.43 54.13Q50.43 54.13 50.42 54.12Q49.91 53.68 49 53.68Q48.43 53.68 47.95 53.89L47.95 53.89Q47.47 54.11 47.19 54.47L47.18 54.48Q46.94 54.8 46.91 55.14Q46.9 55.19 46.9 55.24L47.81 55.24Q47.81 55.14 47.84 55.04Q47.91 54.82 48.14 54.65Q48.17 54.62 48.21 54.6Q48.52 54.41 48.95 54.41Q49.49 54.41 49.77 54.68Q49.78 54.68 49.79 54.69Q49.85 54.75 49.9 54.82Q50.07 55.07 50.07 55.44L50.07 55.86L49.19 55.86Q48.05 55.86 47.42 56.31Q47.16 56.51 47 56.77Q46.8 57.12 46.8 57.59Q46.8 57.95 46.93 58.24Q47.06 58.5 47.3 58.71Q47.4 58.8 47.51 58.87Q47.95 59.16 48.58 59.16Q48.96 59.16 49.3 59.03Q49.73 58.87 50.08 58.5ZM5.93 59.06L6.84 59.06L6.84 53.78L5.93 53.78L5.93 59.06ZM9.85 54.52Q10.08 54.42 10.36 54.42Q10.74 54.42 11.02 54.59Q11.15 54.67 11.26 54.8Q11.59 55.18 11.63 55.87L11.63 55.93L8.98 55.93Q9.07 55.22 9.44 54.82Q9.63 54.62 9.85 54.52ZM26.35 54.52Q26.58 54.42 26.86 54.42Q27.23 54.42 27.51 54.59Q27.64 54.67 27.75 54.8Q28.09 55.18 28.12 55.87L28.12 55.93L25.48 55.93Q25.57 55.22 25.94 54.82Q26.12 54.62 26.35 54.52ZM1.27 57.88Q0.9 57.37 0.9 56.48Q0.9 55.47 1.27 54.96Q1.43 54.73 1.65 54.6Q1.93 54.44 2.3 54.44Q2.71 54.44 3.02 54.62Q3.34 54.81 3.55 55.19L3.55 57.62Q3.35 58.01 3.03 58.2Q2.72 58.39 2.29 58.39Q1.94 58.39 1.66 58.24Q1.44 58.11 1.27 57.88ZM49.02 58.34Q48.87 58.37 48.71 58.37Q48.33 58.37 48.07 58.19Q48.02 58.16 47.98 58.13Q47.89 58.06 47.83 57.96Q47.7 57.76 47.7 57.47Q47.7 57.22 47.81 57.03Q48.12 56.5 49.36 56.5L50.07 56.5L50.07 57.58Q50.04 57.64 50 57.69Q49.83 57.97 49.52 58.15Q49.28 58.29 49.02 58.34Z" fill="#000000" fill-opacity="1.000000" fill-rule="evenodd"/>
	<path id="Plush Creation die Werkstatt" d="M152.28 0L152.28 2.37L152.97 2.43Q153.66 2.5 154.78 2.87Q155.91 3.25 157.13 3.96Q158.34 4.68 159.56 6.18Q160.78 7.68 161.47 9.68Q161.72 10.5 161.84 11.31Q161.91 11.68 161.91 12.37L164.16 11.81Q164.16 10.72 163.94 9.68Q163.31 6.65 160.84 4Q158.2 1.14 155.04 0.32Q153.71 -0.02 152.28 0ZM136.91 11.68L136.91 32.75Q136.91 35.43 138.59 38.37Q140.21 41.08 142.58 42.57Q145.46 44.37 149.47 44.37L149.47 42Q146.85 41.96 144.77 40.88Q143.18 40.06 141.91 38.62Q139.71 36.15 139.44 33.49Q139.41 33.12 139.41 32.75L139.41 11.68Q139.41 9.62 140.72 7.31Q142.15 4.9 144.27 3.66Q146.49 2.37 149.47 2.37L149.47 0Q145.96 0 143.26 1.47Q141.15 2.63 139.53 4.68Q137.08 7.9 136.92 11.22Q136.91 11.45 136.91 11.68ZM2.16 0.31L2.16 44.06L4.66 44.06L4.66 0.31L2.16 0.31ZM7.47 22.5L7.47 24.81L18.16 24.81Q19.28 24.75 20.28 24.56Q23.23 24.07 25.12 22.39Q28.53 19.37 28.53 12.5Q28.53 9.68 27.97 7.56Q27.24 4.86 25.52 3.15Q22.95 0.61 18.16 0.31L7.47 0.31L7.47 2.56L16.78 2.56Q19.34 2.56 21.22 3.25Q22.36 3.67 23.22 4.4Q25.97 6.75 25.97 12.31Q25.97 15.31 25.28 17.43Q24.72 19.12 23.59 20.25Q21.34 22.5 16.84 22.5L7.47 22.5ZM239.72 12.56L239.72 15L243.66 15L243.66 33.56Q243.66 36.37 244.22 38.31Q244.75 40.24 245.96 41.52Q248.33 44.02 253.28 44.06L254.22 44.06L253.66 41.68L253.59 41.68Q251.22 41.68 249.59 41.06Q248.87 40.76 248.3 40.27Q246.16 38.46 246.16 34.12L246.16 15L250.09 15L250.09 12.56L246.16 12.56L246.16 0.31L243.66 0.31L243.66 12.56L239.72 12.56ZM32.41 0.43L32.41 44.06L34.91 44.06L34.91 0.43L32.41 0.43ZM94.09 0.43L94.09 44L96.59 44L96.59 21.25Q96.59 21.23 96.59 21.21Q96.67 19.17 98.41 17.18Q100.33 15.21 102.59 14.69Q103.41 14.5 104.28 14.5L104.28 12.12Q103.84 12.12 103.28 12.18Q100.17 12.4 98.13 13.99Q97.22 14.7 96.53 15.68L96.53 0.43L94.09 0.43ZM257.12 6.64Q256.84 7.03 256.84 7.62Q256.84 7.81 256.91 8.12Q257.08 8.67 257.45 8.97Q257.89 9.31 258.59 9.31Q258.84 9.31 259.09 9.25Q259.68 9.06 259.98 8.66Q260.28 8.25 260.28 7.62Q260.28 7.37 260.22 7.12Q260.03 6.53 259.63 6.23Q259.22 5.93 258.59 5.93Q258.41 5.93 258.09 6Q257.43 6.19 257.12 6.64ZM211.97 33.62L211.97 36.5Q211.97 36.74 211.99 36.97Q212.14 38.72 213.41 40.37Q214.18 41.36 215.15 42.09Q217.73 44 221.72 44L221.72 41.62Q220.28 41.62 218.97 41.25Q216.53 40.55 215.43 38.94Q214.56 37.66 214.53 35.81L214.53 33.37Q214.53 31.68 215.22 30.93Q216.41 29.75 222.53 28.37Q230.09 26.75 231.84 25.81L231.84 34.75Q231.82 37.87 230.24 39.58Q228.42 41.55 224.53 41.62L224.53 44L225.34 44Q229.78 43.68 231.84 41.62Q231.97 41.75 232.09 41.93Q232.77 42.95 233.71 43.46Q234.7 44 235.97 44L235.97 41.56Q235.58 41.51 235.28 41.31Q234.52 40.83 234.34 39.43L234.34 21.5Q234.34 20.26 234.06 19.08Q233.74 17.71 233.03 16.43Q231.83 14.28 229.99 13.09Q227.74 11.62 224.53 11.62L224.53 13.87Q226.28 13.87 228.03 14.87Q229.93 15.98 230.87 17.63Q231.78 19.24 231.78 21.37L231.78 22.37Q231.72 23.81 223.84 25.62Q216.16 27.43 215.03 28Q214.04 28.51 213.37 29.3Q212.01 30.9 211.97 33.62ZM212.83 17.2Q212.39 18.39 212.41 19.75L214.72 20.62Q214.72 19.79 214.93 19.01Q215.26 17.81 216.09 16.75Q217.14 15.4 218.51 14.71Q219.94 14 221.72 14L221.72 11.62Q220.8 11.62 219.92 11.78Q217.96 12.15 216.16 13.31Q213.66 14.94 212.83 17.2ZM292.78 20.5L292.78 44.06L295.28 44.06L295.28 20.81Q295.28 20.63 295.29 20.46Q295.43 18.64 296.97 16.93Q298.44 15.32 300.26 14.63Q301.61 14.12 303.16 14.12L303.16 11.62Q300.71 11.62 298.68 12.54Q296.92 13.33 295.47 14.81Q292.99 17.35 292.8 20.05Q292.78 20.27 292.78 20.5ZM305.78 11.62L305.78 14.12Q307.27 14.15 308.59 14.65Q310.19 15.25 311.53 16.56Q313.66 18.75 313.66 20.81L313.66 44.06L316.16 44.06L316.16 20.5Q316.16 18.5 314.53 16.18Q313.03 13.99 310.95 12.85Q308.7 11.62 305.78 11.62ZM68.46 16.25Q67.16 18.34 67.16 21.25Q67.18 22.93 67.91 24.22Q69.31 26.7 73.34 27.68Q73.72 27.75 74.16 27.87Q81.91 29.68 82.72 29.93Q87.14 31.33 87.75 33.71Q87.84 34.09 87.84 34.5Q87.84 35.64 87.51 36.67Q87 38.24 85.72 39.56Q84.24 40.97 82.48 41.58Q81.12 42.06 79.59 42.06L79.59 44.37Q82.04 44.37 84.14 43.52Q84.99 43.17 85.78 42.68Q87.97 41.37 89.1 39.43Q90.34 37.33 90.34 34.5Q90.33 33 89.74 31.79Q88.29 28.77 83.34 27.43Q82.53 27.25 81.53 27Q73.91 25.18 72.84 24.81Q70.35 23.83 69.81 22.2Q69.66 21.75 69.66 21.25Q69.66 20.48 69.83 19.76Q70.26 18 71.72 16.5Q73.59 14.62 75.74 14.23Q76.31 14.12 76.91 14.12L76.91 11.75Q76.44 11.75 75.97 11.79Q74.02 11.99 72.16 13Q69.71 14.25 68.46 16.25ZM79.53 11.75L79.53 14.18Q81.16 14.18 83.16 15.12Q86.02 16.58 86.93 18.82Q87.34 19.86 87.34 21.06L89.78 20.68Q89.78 20.34 89.75 20Q89.53 17.74 87.84 15.62Q86.45 13.9 84.66 12.94Q82.41 11.75 79.53 11.75ZM169.28 11.81L169.28 44.06L171.78 44.06L171.78 24.81Q171.78 24.12 171.86 23.43Q172.2 20.6 173.91 17.93Q176.06 14.62 178.65 14.24Q178.99 14.18 179.34 14.18L179.97 11.87L179.91 11.87Q179.14 11.87 178.39 12Q177.01 12.25 175.72 12.93Q173.41 14.19 172.27 16.13Q171.99 16.61 171.78 17.12L171.78 11.81L169.28 11.81ZM183.72 20.5L183.72 35.25Q183.72 37.25 185.34 39.62Q186.96 41.87 189.14 42.97Q191.28 44.06 193.97 44.06L193.97 41.68Q193.51 41.67 193.07 41.61Q190.75 41.27 188.66 39.43Q186.22 37.25 186.22 35.25L186.22 28.62L206.91 28.62L206.91 20.43Q206.9 19.95 206.82 19.47Q206.41 17.02 204.16 14.87Q202.15 12.98 199.79 12.26Q198.32 11.81 196.72 11.81L196.72 14.06Q197.01 14.06 197.31 14.08Q199.31 14.25 201.22 15.56Q203.43 17.08 204.11 19.11Q204.41 20 204.41 21L204.41 26.25L186.22 26.25L186.22 21Q186.22 19.43 187.59 17.56Q189.14 15.47 191.19 14.67Q192.45 14.18 193.91 14.18L193.91 11.81Q191.73 11.81 189.87 12.57Q187.94 13.37 186.34 15Q183.86 17.6 183.73 20.32Q183.72 20.41 183.72 20.5ZM257.34 11.81L257.34 44.06L259.84 44.06L259.84 11.81L257.34 11.81ZM265.28 20.56L265.28 35.25Q265.28 37.25 266.72 39.5Q268.13 41.62 270.1 42.77Q272.43 44.12 275.53 44.12L275.53 41.75Q274.72 41.75 273.95 41.56Q271.94 41.09 270.22 39.37Q267.85 37 267.78 34.56Q267.78 34.5 267.78 34.43L267.78 21.37Q267.78 19.68 268.84 17.93Q270.02 16.03 271.72 15.09Q273.38 14.18 275.53 14.18L275.53 11.81Q273.01 11.81 270.96 12.78Q269.28 13.57 267.91 15Q265.49 17.47 265.3 20.11Q265.28 20.33 265.28 20.56ZM278.09 41.75L278.09 44.12Q280.56 44.09 282.56 43.11Q284.16 42.32 285.47 40.93Q287.82 38.41 288.01 35.73Q288.03 35.49 288.03 35.25L288.03 20.56Q288.03 18.56 286.59 16.37Q285.2 14.21 283.23 13.08Q281.03 11.81 278.09 11.81L278.09 14.18Q279.3 14.18 280.38 14.54Q281.88 15.05 283.16 16.25Q285.11 18.2 285.46 20.4Q285.53 20.88 285.53 21.37L285.53 34.56Q285.53 36.25 284.41 38.06Q283.04 40.23 281.09 41.12Q279.74 41.75 278.09 41.75ZM39.91 11.93L39.91 35.5Q39.91 37.56 41.34 39.75Q42.68 41.76 44.55 42.9Q46.97 44.37 50.28 44.37L50.28 41.87Q49.35 41.87 48.46 41.66Q46.68 41.25 45.09 40Q42.7 37.99 42.44 35.74Q42.41 35.46 42.41 35.18L42.41 11.93L39.91 11.93ZM52.91 41.87L52.91 44.37Q55.56 44.34 57.71 43.28Q59.36 42.47 60.72 41.06Q63.21 38.38 63.28 35.65Q63.28 35.57 63.28 35.5L63.28 11.93L60.78 11.93L60.78 35.18Q60.78 36.93 59.41 38.68Q58.23 40.23 56.66 41.02Q55 41.87 52.91 41.87ZM107.09 12.12L107.09 14.5Q109.21 14.5 110.9 15.34Q111.16 15.47 111.41 15.62Q112.72 16.44 113.46 17.62Q114.41 19.14 114.41 21.25L114.41 44L116.91 44L116.91 20.68Q116.91 19.83 116.73 19.01Q116.4 17.5 115.47 16.12Q114.55 14.79 113.31 13.9Q110.84 12.12 107.09 12.12ZM152.28 42L152.28 44.37Q153.76 44.37 155.14 44.02Q157.57 43.4 159.72 41.68Q162.21 39.69 163.3 37.1Q164.16 35.07 164.16 32.68L162.03 32.18Q162.03 32.25 161.91 33.37Q161.59 34.87 161.47 35.37Q160.9 37.16 159.79 38.49Q157.95 40.69 154.59 41.62L152.28 42ZM69.34 35.12L66.91 35.56Q66.91 35.8 66.92 36.03Q67.08 38.28 68.72 40.43Q70.15 42.24 72.02 43.22Q74.22 44.37 77.03 44.37L77.03 42Q75.03 42 72.91 40.75Q70.42 39.22 69.67 37.08Q69.34 36.16 69.34 35.12ZM196.72 41.5L196.72 44.06Q198.62 44.06 200.33 43.49Q200.81 43.33 201.28 43.12Q203.21 42.28 204.55 40.88Q206.21 39.15 206.97 36.56L204.53 35.68Q204.28 36.75 203.47 37.87Q202.01 39.93 200.03 40.82Q198.52 41.5 196.72 41.5Z" fill="#FFFFFF" fill-opacity="1.000000" fill-rule="evenodd"/>
</svg>
